HIERARCHY
ROOT joint_Root
{
	OFFSET 0.0 0.0 0.0
	CHANNELS 6 Xposition Yposition Zposition Zrotation Xrotation Yrotation 
	JOINT Hips
	{
		OFFSET -0.726466 93.3139 -2.00062
		CHANNELS 6 Xposition Yposition Zposition Zrotation Xrotation Yrotation 
		JOINT Spine
		{
			OFFSET 15.7357 0.0 0.0
			CHANNELS 6 Xposition Yposition Zposition Zrotation Xrotation Yrotation 
			JOINT Chest
			{
				OFFSET 8.98455 -0.406207 0.0
				CHANNELS 6 Xposition Yposition Zposition Zrotation Xrotation Yrotation 
				JOINT Neck
				{
					OFFSET 16.3773 0.0 0.0
					CHANNELS 6 Xposition Yposition Zposition Zrotation Xrotation Yrotation 
					JOINT Head
					{
						OFFSET 6.45672 0.0 0.0
						CHANNELS 6 Xposition Yposition Zposition Zrotation Xrotation Yrotation 
						End Site
						{
							OFFSET 0.0 0.0 0.0
						}
					}
				}
				JOINT Shoulder_L
				{
					OFFSET 12.9942 -0.242716 4.98039
					CHANNELS 6 Xposition Yposition Zposition Zrotation Xrotation Yrotation 
					JOINT UpperArm_L
					{
						OFFSET 5.34809 0.0 0.0
						CHANNELS 6 Xposition Yposition Zposition Zrotation Xrotation Yrotation 
						JOINT LowerArm_L
						{
							OFFSET 24.3286 1.87007e-05 0.0
							CHANNELS 6 Xposition Yposition Zposition Zrotation Xrotation Yrotation 
							JOINT Hand_L
							{
								OFFSET 22.2916 0.0 0.0
								CHANNELS 6 Xposition Yposition Zposition Zrotation Xrotation Yrotation 
								End Site
								{
									OFFSET 0.0 0.0 0.0
								}
							}
						}
					}
				}
				JOINT Shoulder_R
				{
					OFFSET 12.9945 -0.242716 -4.98039
					CHANNELS 6 Xposition Yposition Zposition Zrotation Xrotation Yrotation 
					JOINT UpperArm_R
					{
						OFFSET -5.34813 0.0 0.0
						CHANNELS 6 Xposition Yposition Zposition Zrotation Xrotation Yrotation 
						JOINT LowerArm_R
						{
							OFFSET -24.3289 0.000322201 0.0
							CHANNELS 6 Xposition Yposition Zposition Zrotation Xrotation Yrotation 
							JOINT Hand_R
							{
								OFFSET -22.2915 -0.000108084 0.0
								CHANNELS 6 Xposition Yposition Zposition Zrotation Xrotation Yrotation 
								End Site
								{
									OFFSET 0.0 0.0 0.0
								}
							}
						}
					}
				}
			}
		}
		JOINT UpperLeg_L
		{
			OFFSET -2.19248 -6.46944 0.0
			CHANNELS 6 Xposition Yposition Zposition Zrotation Xrotation Yrotation 
			JOINT LowerLeg_L
			{
				OFFSET 39.0811 0.0 -1.23785e-05
				CHANNELS 6 Xposition Yposition Zposition Zrotation Xrotation Yrotation 
				JOINT Foot_L
				{
					OFFSET 40.9854 0.0 -1.26872e-05
					CHANNELS 6 Xposition Yposition Zposition Zrotation Xrotation Yrotation 
					JOINT Toes_L
					{
						OFFSET 11.7543 0.0 0.0
						CHANNELS 6 Xposition Yposition Zposition Zrotation Xrotation Yrotation 
						End Site
						{
							OFFSET 0.0 0.0 0.0
						}
					}
				}
			}
		}
		JOINT UpperLeg_R
		{
			OFFSET -2.19251 6.46944 0.0
			CHANNELS 6 Xposition Yposition Zposition Zrotation Xrotation Yrotation 
			JOINT LowerLeg_R
			{
				OFFSET -39.0811 -0.00228153 -0.0401928
				CHANNELS 6 Xposition Yposition Zposition Zrotation Xrotation Yrotation 
				JOINT Foot_R
				{
					OFFSET -40.9854 0.0 0.0
					CHANNELS 6 Xposition Yposition Zposition Zrotation Xrotation Yrotation 
					JOINT Toes_R
					{
						OFFSET -11.7543 0.0 0.0
						CHANNELS 6 Xposition Yposition Zposition Zrotation Xrotation Yrotation 
						End Site
						{
							OFFSET 0.0 0.0 0.0
						}
					}
				}
			}
		}
	}
}
MOTION
Frames:	7
Frame Time:	0.0333333
0.000000 0.000000 0.000000 0.000000 0.000000 -0.000000 -1.335460 92.936500 -0.241028 89.055900 -1.961510 1.079280 15.735700 0.000005 -0.000001 96.964100 86.678100 -96.855100 8.984550 -0.406207 -0.000000 -1.172090 0.796863 0.225968 16.377300 -0.000001 -0.000001 2.538270 -2.033900 3.597860 6.456720 -0.000001 -0.000000 6.630120 -0.858658 -4.040440 12.994200 -0.242716 4.980390 -90.401300 1.177850 -71.183500 5.348090 -0.000007 -0.000001 -69.485100 38.043100 -9.731200 24.328600 0.000019 0.000005 3.374060 8.220030 -22.408800 22.291600 -0.000001 0.000005 4.041620 5.491410 -6.191020 12.994500 -0.242716 -4.980390 87.575900 7.680060 -72.423500 -5.348130 -0.000001 -0.000004 -65.895400 36.753100 -11.574500 -24.328900 0.000322 -0.000009 5.092030 12.972200 -21.654700 -22.291500 -0.000108 -0.000004 5.792960 5.316140 -0.384907 -2.192480 -6.469440 -0.000000 -175.954000 -7.152900 -2.263920 39.081100 -0.000007 -0.000012 -0.071251 0.243531 16.308100 40.985400 -0.000006 -0.000013 -1.483220 2.762470 -63.012200 11.754300 -0.000000 0.000003 -0.000001 -0.000017 -16.578100 -2.192510 6.469440 -0.000001 179.476000 10.939000 -179.274000 -39.081100 -0.002282 -0.040193 -0.031627 0.149624 13.151500 -40.985400 0.000008 0.000006 2.277800 6.701900 -63.263900 -11.754300 -0.000006 -0.000006 -0.003254 -0.043440 -18.339800
0.000000 0.000000 0.000000 0.000000 0.000000 -0.000000 -1.324550 92.943300 -0.296995 89.022400 -2.190650 1.054040 15.735700 0.000005 -0.000001 97.009800 86.647500 -96.924100 8.984550 -0.406207 -0.000000 -1.111760 0.811470 0.179189 16.377300 -0.000001 -0.000001 2.465650 -2.013460 3.574430 6.456720 -0.000001 -0.000000 6.264420 -0.831491 -4.168790 12.994200 -0.242716 4.980390 -90.397800 1.164790 -71.143000 5.348090 -0.000007 -0.000001 -69.541600 37.936400 -9.630360 24.328600 0.000019 0.000005 3.373540 8.218130 -22.410300 22.291600 -0.000001 0.000005 4.096110 5.490870 -6.170000 12.994500 -0.242716 -4.980390 87.536100 7.702440 -72.200500 -5.348130 -0.000001 -0.000004 -65.657200 34.606200 -11.615100 -24.328900 0.000322 -0.000009 6.133610 13.600100 -24.563900 -22.291500 -0.000108 -0.000004 3.421780 5.291590 0.310745 -2.192480 -6.469440 -0.000000 -175.944000 -7.285020 -2.302730 39.081100 -0.000007 -0.000012 -0.071679 0.244870 16.316000 40.985400 -0.000006 -0.000013 -1.488220 2.630370 -62.994400 11.754300 -0.000000 0.000003 -0.000001 -0.000008 -16.577800 -2.192510 6.469440 -0.000001 179.504000 10.923400 -179.349000 -39.081100 -0.002282 -0.040193 -0.031164 0.147893 13.130000 -40.985400 0.000008 0.000006 2.277610 6.865280 -63.194100 -11.754300 -0.000006 -0.000006 -0.003354 -0.044543 -18.384700
0.000000 0.000000 0.000000 0.000000 0.000000 -0.000000 -1.276990 92.956500 -0.343365 89.018400 -2.474900 1.056000 15.735700 0.000005 -0.000001 96.646700 86.616400 -96.591500 8.984550 -0.406207 -0.000000 -1.044760 0.778867 0.117349 16.377300 -0.000001 -0.000001 2.404750 -1.966920 3.492830 6.456720 -0.000001 -0.000000 5.727450 -0.711242 -4.380490 12.994200 -0.242716 4.980390 -90.398700 1.158320 -71.007300 5.348090 -0.000007 -0.000001 -69.585600 37.891900 -9.515270 24.328600 0.000019 0.000005 3.374810 8.202090 -22.457200 22.291600 -0.000001 0.000005 4.117390 5.488600 -6.080810 12.994500 -0.242716 -4.980390 87.421700 7.880060 -71.817200 -5.348130 -0.000001 -0.000004 -65.042300 30.742400 -11.695100 -24.328900 0.000322 -0.000009 7.069820 12.462600 -29.891700 -22.291500 -0.000108 -0.000004 1.871980 5.267560 0.964282 -2.192480 -6.469440 -0.000000 -175.983000 -7.462150 -2.239930 39.081100 -0.000007 -0.000012 -0.069511 0.238987 16.217400 40.985400 -0.000006 -0.000013 -1.474780 2.487000 -62.944700 11.754300 -0.000000 0.000003 -0.000001 -0.000013 -16.578000 -2.192510 6.469440 -0.000001 179.457000 10.912200 -179.370000 -39.081100 -0.002282 -0.040193 -0.029680 0.142221 13.068600 -40.985400 0.000008 0.000006 2.297200 7.195420 -63.115800 -11.754300 -0.000006 -0.000006 -0.003263 -0.043547 -18.344200
0.000000 0.000000 0.000000 0.000000 0.000000 -0.000000 -1.220310 92.978700 -0.434559 88.947600 -2.882640 0.931154 15.735700 0.000005 -0.000001 95.980100 86.640600 -95.917800 8.984550 -0.406207 -0.000000 -1.084270 0.695014 0.131054 16.377300 -0.000001 -0.000001 2.325850 -1.833650 3.336420 6.456720 -0.000001 -0.000000 5.246500 -0.467927 -4.667900 12.994200 -0.242716 4.980390 -90.400200 1.154490 -70.880000 5.348090 -0.000007 -0.000001 -69.779200 37.606300 -9.277500 24.328600 0.000019 0.000005 3.376840 8.214130 -22.439900 22.291600 -0.000001 0.000005 3.929770 5.488880 -6.091960 12.994500 -0.242716 -4.980390 87.345800 7.924200 -71.414500 -5.348130 -0.000001 -0.000004 -63.797200 26.838000 -12.470800 -24.328900 0.000322 -0.000009 7.720240 10.243000 -37.325000 -22.291500 -0.000108 -0.000004 2.734210 5.265160 1.028420 -2.192480 -6.469440 -0.000000 -175.968000 -7.711240 -2.330760 39.081100 -0.000007 -0.000012 -0.069367 0.239805 16.133300 40.985400 -0.000006 -0.000013 -1.461310 2.344430 -62.875200 11.754300 -0.000000 0.000003 -0.000001 -0.000013 -16.578000 -2.192510 6.469440 -0.000001 179.536000 10.795300 -179.544000 -39.081100 -0.002282 -0.040193 -0.026122 0.127872 12.972000 -40.985400 0.000008 0.000006 2.553000 7.431380 -63.012500 -11.754300 -0.000006 -0.000006 -0.003465 -0.045756 -18.434100
0.000000 0.000000 0.000000 0.000000 0.000000 -0.000000 -1.123340 92.988400 -0.495154 88.875200 -3.463970 0.917952 15.735700 0.000005 -0.000001 95.591600 86.645200 -95.507200 8.984550 -0.406207 -0.000000 -1.088840 0.647110 0.174855 16.377300 -0.000001 -0.000001 2.342270 -1.600920 3.166570 6.456720 -0.000001 -0.000000 4.670860 -0.091844 -5.097370 12.994200 -0.242716 4.980390 -90.414200 1.186510 -70.755000 5.348090 -0.000007 -0.000001 -69.916800 37.553600 -8.977640 24.328600 0.000019 0.000005 3.348740 8.111780 -22.522500 22.291600 -0.000001 0.000005 3.816090 5.485250 -5.950570 12.994500 -0.242716 -4.980390 87.345500 7.743420 -71.011700 -5.348130 -0.000001 -0.000004 -62.251800 22.697600 -14.149200 -24.328900 0.000322 -0.000009 10.311000 9.798060 -46.910300 -22.291500 -0.000108 -0.000004 4.722330 5.251480 1.393430 -2.192480 -6.469440 -0.000000 -175.973000 -8.075550 -2.310320 39.081100 -0.000007 -0.000012 -0.068906 0.237944 16.150300 40.985400 -0.000006 -0.000013 -1.424960 2.115160 -62.898800 11.754300 -0.000000 0.000003 -0.000000 -0.000006 -16.577700 -2.192510 6.469440 -0.000001 179.528000 10.592400 -179.608000 -39.081100 -0.002282 -0.040193 -0.024402 0.121140 12.896200 -40.985400 0.000008 0.000006 2.499660 7.842980 -62.882000 -11.754300 -0.000006 -0.000006 -0.003679 -0.048056 -18.527700
0.000000 0.000000 0.000000 0.000000 0.000000 -0.000000 -0.999782 93.007000 -0.566003 88.794600 -4.198140 0.834207 15.735700 0.000005 -0.000001 95.996500 86.681600 -95.891200 8.984550 -0.406207 -0.000000 -1.166250 0.684971 0.217473 16.377300 -0.000001 -0.000001 2.322470 -1.373990 3.077190 6.456720 -0.000001 -0.000000 4.222030 0.341056 -5.665930 12.994200 -0.242716 4.980390 -90.443300 1.265080 -70.689200 5.348090 -0.000007 -0.000001 -69.946000 37.591400 -8.765450 24.328600 0.000019 0.000005 3.403940 8.282840 -22.434700 22.291600 -0.000001 0.000005 3.962540 5.490050 -6.137590 12.994500 -0.242716 -4.980390 87.419800 7.391840 -70.696600 -5.348130 -0.000001 -0.000004 -60.671200 18.383000 -16.706600 -24.328900 0.000322 -0.000009 14.445400 9.296230 -57.906600 -22.291500 -0.000108 -0.000004 6.851950 5.215720 2.320070 -2.192480 -6.469440 -0.000000 -175.996000 -8.521240 -2.313240 39.081100 -0.000007 -0.000012 -0.068575 0.237705 16.092200 40.985400 -0.000006 -0.000013 -1.388180 1.807260 -62.888300 11.754300 -0.000000 0.000003 -0.000001 -0.000010 -16.577900 -2.192510 6.469440 -0.000001 179.514000 10.432700 -179.741000 -39.081100 -0.002282 -0.040193 -0.022790 0.115194 12.777700 -40.985400 0.000008 0.000006 2.558710 8.417520 -62.729000 -11.754300 -0.000006 -0.000006 -0.003414 -0.045195 -18.411300
0.000000 0.000000 0.000000 0.000000 0.000000 -0.000000 -0.854058 93.017600 -0.608968 88.685800 -5.074920 0.804360 15.735700 0.000005 -0.000001 96.915500 86.707000 -96.784100 8.984550 -0.406207 -0.000000 -1.228830 0.782515 0.271130 16.377300 -0.000001 -0.000001 2.257370 -1.046750 2.959420 6.456720 -0.000001 -0.000000 3.855180 0.773354 -6.127570 12.994200 -0.242716 4.980390 -90.472700 1.339150 -70.557400 5.348090 -0.000007 -0.000001 -69.908300 37.647300 -8.737990 24.328600 0.000019 0.000005 3.414210 8.411900 -22.186600 22.291600 -0.000001 0.000005 4.005750 5.490350 -6.149610 12.994500 -0.242716 -4.980390 87.520500 7.021320 -70.493400 -5.348130 -0.000001 -0.000004 -59.117800 14.027200 -19.992200 -24.328900 0.000322 -0.000009 16.416300 6.427190 -69.198700 -22.291500 -0.000108 -0.000004 9.994090 5.211010 2.441980 -2.192480 -6.469440 -0.000000 -176.001000 -8.992280 -2.261540 39.081100 -0.000007 -0.000012 -0.068046 0.235531 16.114200 40.985400 -0.000006 -0.000013 -1.350520 1.412850 -62.951900 11.754300 -0.000000 0.000003 -0.000000 -0.000002 -16.577600 -2.192510 6.469440 -0.000001 179.484000 10.288700 -179.835000 -39.081100 -0.002282 -0.040193 -0.020904 0.107474 12.709300 -40.985400 0.000008 0.000006 2.650330 9.175460 -62.618600 -11.754300 -0.000006 -0.000006 -0.003518 -0.046330 -18.457500
